<?xml version="1.0" standalone="no"?><!DOCTYPE svg PUBLIC "-//W3C//DTD SVG 1.1//EN" "http://www.w3.org/Graphics/SVG/1.1/DTD/svg11.dtd"><svg t="1647433236577" class="icon" viewBox="0 0 1024 1024" version="1.1" xmlns="http://www.w3.org/2000/svg" p-id="2694" xmlns:xlink="http://www.w3.org/1999/xlink" width="200" height="200"><defs><style type="text/css"></style></defs><path d="M891.9 426.7c64.8 96.1-94.3 372-323.7 434.5-85.7 23.3-221.2 27.8-267.7-35.5-24.3-33.1-4.9-57.8-31.3-109.7-39-77-106.5-71.9-140.1-122.7-68.4-103.5 59.8-354.1 251-424.5 25.5-9.4 113.3-39.1 176.2-1.2 57.5 34.5 38.2 92 90.6 152.5 81.1 93.6 201.6 42.2 245 106.6z" fill="#4082FC" p-id="2695"></path><path d="M663.7 337.7c72.5 83.7 176.4 51.5 228.7 89.8-0.2-0.2-0.3-0.5-0.5-0.8-40.9-60.7-150.3-18.6-230.6-91.9 0.8 1 1.6 1.9 2.4 2.9zM286 733.5c-10-19.7-21.9-34.1-34.6-45.3 6.4 7.9 12.4 17 17.9 27.8 26.3 51.9 6.9 76.6 31.3 109.7 4.6 6.2 10 11.8 16.2 16.7-23.5-32.7-4.7-57.4-30.8-108.9zM145.8 610.9c-68.4-103.5 59.8-354.1 251-424.5 25.5-9.4 113.3-39.1 176.2-1.2 4.1 2.5 7.8 5.1 11.2 7.8-6.7-9.4-15.6-17.9-28-25.4-63-37.8-150.7-8.1-176.2 1.2-191.2 70.4-319.4 321-251 424.5 5.6 8.5 12.3 15.5 19.5 21.5-0.8-1.3-1.8-2.6-2.7-3.9z" fill="#27B5FC" p-id="2696"></path><path d="M205.6 416.5l-11.9 3.3 0.1-3.7c-0.4 1.1-0.5 2.4-0.1 3.7l73.7 267.5 12.1-3.3-73.3-265.8c-0.2-0.6-0.4-1.1-0.6-1.7z" fill="#FFFFFF" p-id="2697"></path><path d="M205.6 416.5c-0.9-3.3-4.3-5.2-7.6-4.3-2 0.6-3.5 2.1-4.2 3.9l-0.1 3.7 11.9-3.3z" fill="#FFFFFF" p-id="2698"></path><path d="M207.1 375.5l-6 1.6-6 1.6-1.3 37.3c0.6-1.8 2.1-3.3 4.2-3.9 3.3-0.9 6.7 1 7.6 4.3-0.9-3.3 1-6.7 4.3-7.6 3.3-0.9 6.7 1 7.6 4.3a6.16 6.16 0 0 1 9.9-6.4l-20.3-31.2z" fill="#FCA360" p-id="2699"></path><path d="M195.9 358l-0.8 20.8 6-1.6 6-1.7z" fill="#313145" p-id="2700"></path><path d="M217.6 415l73.3 265.8 12.1-3.3L229.3 410l-11.9 3.3c0.2 0.5 0.2 1.1 0.2 1.7z" fill="#FFFFFF" p-id="2701"></path><path d="M229.3 410a6 6 0 0 0-2-3.1l2 3.1z" fill="#EFE9D5" p-id="2702"></path><path d="M221.7 405.7c-3.3 0.9-5.2 4.3-4.3 7.6l11.9-3.3-2-3.1a6.15 6.15 0 0 0-5.6-1.2z" fill="#FFFFFF" p-id="2703"></path><path d="M217.6 415c0-0.6 0-1.2-0.2-1.8-0.9-3.3-4.3-5.2-7.6-4.3a6.16 6.16 0 0 0-3.6 9.2l73.3 265.8 5.7-1.6 5.7-1.6L217.6 415z" fill="#313145" p-id="2704"></path><path d="M217.4 413.3v-0.1 0.1z" fill="#EFE9D5" p-id="2705"></path><path d="M326.4 387.9c-5.8-0.8-15 28.5-23.9 72.9l13.6 1.9 10.3-74.8z" fill="#FFFFFF" p-id="2706"></path><path d="M338.3 301.5l-1.8 13.1c1.7-7.6 1.8-13.1 1.8-13.1z" fill="#00BEC5" p-id="2707"></path><path d="M338.3 301.5s-0.1 5.5-1.8 13.1c-1.2 5.5-3.2 12.1-6.4 18.6-5.9 11.7-19.5 22-20.9 32-1.5 11 6.2 21.2 17.2 22.7s21.2-6.2 22.7-17.2-1.2-48.8-10.8-69.2z" fill="#FD595E" p-id="2708"></path><path d="M329.7 464.5c3.4-45.1 2.5-75.8-3.3-76.6l-10.3 74.7 13.6 1.9z" fill="#FFFFFF" p-id="2709"></path><path d="M316.1 462.6l-13.6-1.9c-4.5 22.3-8.9 48.5-12.8 76.5-11.6 83.7-13.9 152.5-5.2 153.7 8.7 1.2 25.2-65.7 36.7-149.4 3.9-28 6.7-54.4 8.5-77.1l-13.6-1.8z" fill="#FD595E" p-id="2710"></path><path d="M339.7 512.6H214c-7.4 0-12.7 6-11.9 13.3l3.3 29.1 16.9-12.4 18.2 13.4 18.2-13.4 18.2 13.4 18.2-13.4 18.2 13.4 18.2-13.4 17.2 12.7 3.1-29.4c0.7-7.3-4.7-13.3-12.1-13.3z m-8.3 48.8l-18.2 13.4-18.2-13.4-18.2 13.4-18.2-13.4-18.2 13.4-18.2-13.4-14.9 11 13.5 118c0.8 7.3 7.6 13.3 14.9 13.3h83.9c7.4 0 14-6 14.8-13.3l12.4-117.7-15.4-11.3z" fill="#FCA360" p-id="2711"></path><path d="M331.4 542.6L313.2 556 295 542.6 276.9 556h-0.1l-18.2-13.4-18.1 13.4-18.2-13.4-16.9 12.4 2 17.3 14.9-10.9 18.2 13.4 18.1-13.4 18.2 13.4 0.1-0.1 18.1-13.3 18.2 13.4 18.2-13.4 15.4 11.3 1.8-17.4zM151.3 737.8c0 18.8 15.3 34.1 34.1 34.1h633.8c18.8 0 34.1-15.3 34.1-34.1s-15.3-34.1-34.1-34.1H185.4c-18.8 0-34.1 15.3-34.1 34.1z" fill="#313145" p-id="2712"></path><path d="M444.4 406.2c-0.7 0-1 0.2-1 0.8-0.2 2.5-0.4 7.1-0.4 7.1l2.5 0.4v-8.3h-1.1zM442.2 548l-0.4 19.9c-0.1 3.2 0.3 3.9 1.8 3.9 1.2 0 1.8-0.2 1.8-0.2V565l-3.1-6.2 0.3-1.7 2.8-3.4v-8.8c-2.5 0.6-3.1 1.1-3.2 3.1z m0.7-126.5l-0.3 5.7c0 1.5 0.9 2.3 2.9 2.5v-8.2h-2.6z m-0.9 88.7c0 6.8 1.1 10.6 3.5 11.9v-21.6c-2.6 0.7-3.5 3.4-3.5 9.7z" fill="#FFFFFF" p-id="2713"></path><path d="M404.7 688.4v-85.2l40.8 18.2v-11.6c-0.3 0.1-0.7 0.1-1.1 0.1a6.7 6.7 0 0 1 0-13.4c0.4 0 0.7 0.1 1.1 0.1v-19.9 0.4s-7.1-0.2-9.5-0.2c-3.6 0-9.5 0.3-9.5 0.3l0.5-4.8c3-0.6 3.7-1.5 3.7-4.7V548c0-2.3-0.4-2.9-2-2.9-0.6 0-1.5 0.1-1.5 0.1l-0.5-0.8 0.5-4.3s8.1 0.1 9.1 0.1c2 0 7.4-0.2 9.2-0.3v-9.1c-10.4-0.2-16.5-6.9-16.5-18.3 0-11.5 5.8-18.4 16.5-19.6v-9.2l-0.4-0.5 0.3-4.8h0.1v-5.3h-1.3c-1.3 0-3.1 0.2-4.6 0.3l-0.6 2.5c-0.1 0.6-0.2 1-0.2 1.3 0 1 0.2 1.1 1.8 1.1h1.5l0.5 0.6-0.5 4.7s-5.3-0.2-8.8-0.2c-3.5 0-7.6 0.1-7.6 0.1l0.4-5c1.4-0.3 2.3-1.4 2.9-3.1l9.1-28.6 7.3-0.4v-9.3c-2.5-0.2-6.8-0.5-8-0.5-3.6 0-10.3 0.4-10.3 0.4l0.5-5.1c3-0.5 3.8-1.4 3.8-4.2l0.1-20.3c0-1.8-0.5-2.6-1.5-2.6-0.7 0-1.9 0.1-1.9 0.1l-0.7-0.7 0.7-4.6s7.8 0.1 9.6 0.1c1.1 0 4.9-0.1 7.7-0.3v-11.6c-0.3 0.1-0.7 0.1-1.1 0.1a6.7 6.7 0 0 1 0-13.4c0.4 0 0.7 0.1 1.1 0.1V363l-0.6-0.3-40.1 18.3v-85.2h40.8v-16.2h-56.4v424.1h56.4v-15.4h-40.8z" fill="#FFFFFF" p-id="2714"></path><path d="M445.4 455.9h-1.3l-2.7 10.1h4v-10.1z" fill="#FFFFFF" p-id="2715"></path><path d="M445.4 478.2l-0.3 4.8 0.4 0.5-0.1-5.3z" fill="#FBC16C" p-id="2716"></path><path d="M442.4 558.7l3.1 6.3v-11.3l-2.9 3.3zM437.7 381c0 3.7 3 6.7 6.7 6.7 0.4 0 0.7-0.1 1.1-0.1v-13.2c-0.3-0.1-0.7-0.1-1.1-0.1-3.7 0-6.7 3-6.7 6.7z" fill="#8557DA" p-id="2717"></path><path d="M501.9 279.6h0.2v424.1h-0.2z" fill="#3F2B3B" p-id="2718"></path><path d="M445.5 456.3v9.7c0.6 0 1.2 0 1.9-0.1l-1.9-9.6z" fill="#EFE9D5" p-id="2719"></path><path d="M451 425.7c0-1.9-1.3-3.4-3.6-4.2h-1.9v8.2c0.4 0 0.8 0.1 1.3 0.1 2.7 0 4.2-1.4 4.2-4.1z" fill="#FFFFFF" p-id="2720"></path><path d="M445.5 279.6v16.2h40.8V381l-40.8-18.2v11.6c3.2 0.5 5.7 3.3 5.7 6.6s-2.5 6.1-5.7 6.6v11.6c1.8-0.1 3.2-0.1 3.2-0.1 8.5 0 13 3.1 13 9 0 4.3-2.6 6.8-5.5 8.7 3.4 1.2 7.1 3.2 7.1 8.3 0 7.9-5.5 11.9-16.4 11.9-0.3 0-0.8-0.1-1.4-0.1v9.3l7.7-0.5 0.9 0.7s5.5 21.9 7.1 28.1c0.7 2.6 1.6 3.6 3.4 3.8l0.4 0.6-0.5 4.5s-4.9-0.1-8-0.1c-5.4 0-10.9 0.3-10.9 0.3v9.2c1.1-0.1 2.3-0.2 3.5-0.2 4.9 0 12 1.5 12 1.5l0.5 1.1s-1.2 5.2-1.6 12.2l-8.8 0.5s0.1-1.5 0.1-3.2c0-3.1-1.1-4.2-3.9-4.2-0.7 0-1.3 0.1-1.8 0.2v21.6c0.6 0.3 1.3 0.5 2.1 0.5 2.9 0 4.1-1.8 4.5-6.6l8.7-0.6s-0.7 6.7-0.7 12.1l-0.7 0.9s-6.2 2.2-13.5 2.2h-0.4v9.1h0.6l-0.4 5.1h-0.2v8.8l3.5-4.2c0.7-0.7 1.2-1.8 1.2-2.6 0-1.3-0.6-1.7-2.3-1.8l-0.3-0.6 0.5-4.7s5.5 0.2 8.2 0.2c2.1 0 8.2-0.3 8.2-0.3l0.5 0.9-0.5 4.3c-2.8 1.6-5.4 4.2-8.4 8.4l-2.4 3.4 5.4 10.4c1.7 3.3 3.2 4.8 5.6 5.1l0.6 0.9-0.6 4.2s-7.3 0.6-8.7 0.6c-3 0-4.5-1.1-6.3-4.6l-4.1-8.1v6.7l0.5 0.6-0.5 4.4v19.9c3.2 0.5 5.7 3.3 5.7 6.6s-2.5 6.1-5.7 6.6v11.6l0.6 0.3 40.2-18.4v85.2h-40.8v15.4h56.4V279.6h-56.6z" fill="#FFFFFF" p-id="2721"></path><path d="M449.1 476.3c0-0.2-0.1-0.6-0.1-1l-0.3-2.2c-1 0-2.2-0.1-3.1-0.1v5.3c3.3-0.5 3.5-0.6 3.5-2z" fill="#EFE9D5" p-id="2722"></path><path d="M449.9 410.1c0-2.4-1.4-3.6-4.5-3.8v8.3c0.8 0.1 1.6 0.2 2.1 0.2 0 0 2.4-1.6 2.4-4.7z" fill="#FFFFFF" p-id="2723"></path><path d="M456.1 416.8c2.9-1.9 5.5-4.4 5.5-8.7 0-5.9-4.5-9-13-9 0 0-1.4 0.1-3.2 0.1-2.8 0.1-6.6 0.3-7.7 0.3-1.8 0-9.6-0.1-9.6-0.1l-0.7 4.6 0.7 0.7s1.3-0.1 1.9-0.1c1 0 1.5 0.9 1.5 2.6l-0.1 20.3c0 2.7-0.9 3.6-3.8 4.2l-0.5 5.1s6.7-0.4 10.3-0.4c1.2 0 5.5 0.3 8 0.5 0.6 0.1 1.1 0.1 1.4 0.1 10.9 0 16.4-4 16.4-11.9 0.1-5.1-3.6-7.1-7.1-8.3z m-12.7-9.8c0.1-0.6 0.3-0.8 1-0.8h1.1c3 0.2 4.5 1.5 4.5 3.8 0 3.1-2.4 4.7-2.4 4.7-0.5 0-1.3-0.1-2.1-0.2l-2.5-0.4s0.2-4.6 0.4-7.1z m3.3 22.8c-0.5 0-0.9 0-1.3-0.1-2-0.2-2.9-1-2.9-2.5l0.3-5.7h4.5c2.3 0.7 3.6 2.2 3.6 4.2 0.1 2.7-1.4 4.1-4.2 4.1z m17.8 48.4c-1.8-0.2-2.7-1.3-3.4-3.8-1.7-6.2-7.1-28.1-7.1-28.1l-0.9-0.7-7.7 0.5-7.3 0.4-9.1 28.6c-0.6 1.8-1.5 2.8-2.9 3.1l-0.4 5s4-0.1 7.6-0.1c3.5 0 8.8 0.2 8.8 0.2l0.5-4.7-0.5-0.6h-1.5c-1.5 0-1.8-0.2-1.8-1.1 0-0.2 0.1-0.6 0.2-1.3l0.6-2.5c1.5-0.1 3.2-0.3 4.6-0.3h1.3c1 0 2.1 0.1 3.1 0.1l0.3 2.2c0.1 0.5 0.1 0.8 0.1 1 0 1.5-0.2 1.5-3.6 1.9v5.3s5.5-0.3 10.9-0.3c3.1 0 8 0.1 8 0.1l0.5-4.5-0.3-0.4z m-19-12.2h-4l2.7-10.1h1.3l0.1 0.4 1.9 9.6c-0.8 0-1.4 0-2 0.1z m0.4 106.2l-0.4-0.5v4.9z m-0.2-27.4l0.4-5.1h-0.6v5.2c0-0.1 0.1-0.1 0.2-0.1z m-3.9 23.1l0.4-19.9c0.1-1.9 0.6-2.5 3.2-3.1v-5.2c-1.8 0.1-7.2 0.3-9.2 0.3-1 0-9.1-0.1-9.1-0.1l-0.5 4.3 0.5 0.8s0.9-0.1 1.5-0.1c1.6 0 2 0.6 2 2.9v19.7c0 3.2-0.7 4-3.7 4.7l-0.5 4.8s5.9-0.3 9.5-0.3c2.4 0 9.5 0.2 9.5 0.2v-5.4s-0.7 0.2-1.8 0.2c-1.4 0.2-1.8-0.6-1.8-3.8z m3.7-37.3h0.4c7.4 0 13.5-2.2 13.5-2.2l0.7-0.9c0-5.5 0.7-12.1 0.7-12.1l-8.8 0.6c-0.4 4.8-1.6 6.6-4.5 6.6-0.8 0-1.5-0.2-2.1-0.5-2.4-1.3-3.5-5.1-3.5-11.9 0-6.3 0.9-9 3.5-9.7 0.5-0.1 1.1-0.2 1.8-0.2 2.9 0 3.9 1.1 3.9 4.2a50 50 0 0 1-0.1 3.2l8.8-0.5c0.4-7 1.6-12.2 1.6-12.2l-0.5-1.1s-7.1-1.5-12-1.5c-1.2 0-2.4 0.1-3.5 0.2-10.6 1.2-16.5 8.1-16.5 19.6 0.1 11.5 6.2 18.2 16.6 18.4z m19.1 41.4c-2.4-0.3-3.9-1.8-5.6-5.1l-5.4-10.4 2.4-3.4c3-4.2 5.6-6.8 8.4-8.4l0.5-4.3-0.5-0.9s-6.2 0.3-8.2 0.3c-2.6 0-8.2-0.2-8.2-0.2l-0.5 4.7 0.3 0.6c1.8 0.1 2.3 0.6 2.3 1.8 0 0.9-0.5 1.9-1.2 2.6l-3.5 4.2V565l4.1 8.1c1.8 3.5 3.3 4.6 6.3 4.6 1.4 0 8.7-0.6 8.7-0.6l0.6-4.2-0.5-0.9z" fill="#8557DA" p-id="2724"></path><path d="M445.5 295.8h-40.8V381l40.2-18.4 0.6 0.2 40.8 18.2v-85.2z m0.6 325.8l-0.6-0.3-40.8-18.2v85.3h81.6v-85.3z" fill="#313145" p-id="2725"></path><path d="M451.1 381c0-3.3-2.5-6.1-5.7-6.6v13.2c3.3-0.5 5.7-3.3 5.7-6.6z m-5.6 215.5c-0.3-0.1-0.7-0.1-1.1-0.1a6.7 6.7 0 0 0 0 13.4c0.4 0 0.7-0.1 1.1-0.1 3.2-0.5 5.7-3.3 5.7-6.6-0.1-3.3-2.5-6.1-5.7-6.6z" fill="#8557DA" p-id="2726"></path><path d="M567.2 680.8h-65.1v22.9h130.2v-22.9z m0-433.1h-65.1v24h130.2v-24z m0 39.7h-65.1v377.8h130.2V287.4h-65.1z m41.7 361.5h-81.3c-1.4 0-2.5-1.1-2.5-2.5s1.1-2.5 2.5-2.5h81.3c1.4 0 2.5 1.1 2.5 2.5s-1.1 2.5-2.5 2.5z m0-17.3h-81.3c-1.4 0-2.5-1.1-2.5-2.5s1.1-2.5 2.5-2.5h81.3c1.4 0 2.5 1.1 2.5 2.5s-1.1 2.5-2.5 2.5z m-82.3-23.4V341.6h81.2v266.6h-81.2z m82.3-281.1h-81.3c-1.4 0-2.5-1.1-2.5-2.5s1.1-2.5 2.5-2.5h81.3c1.4 0 2.5 1.1 2.5 2.5 0 1.3-1.1 2.5-2.5 2.5z m0-17.4h-81.3c-1.4 0-2.5-1.1-2.5-2.5s1.1-2.5 2.5-2.5h81.3c1.4 0 2.5 1.1 2.5 2.5s-1.1 2.5-2.5 2.5z" fill="#FCA360" p-id="2727"></path><path d="M580.8 493.4c3.1 0 4.5-4.5 4.5-15 0-6.3-0.9-8.5-3.3-8.5-2.8 0-4.5 5.7-4.5 14.8-0.1 6 0.9 8.7 3.3 8.7z" fill="#FD595E" p-id="2728"></path><path d="M567.2 341.6h-40.6v266.6h81.2V341.6h-40.6z m-20.4 161.1c-8.1 0-12.4-4.4-11.5-11.8l3.8-21.6-0.8-0.7h-4.7l-0.3-0.4 0.7-5.8 6.3-1c0.6-4.5 1.2-9.7 1.2-9.7l14.7-3.1 1.2 1s-1.5 5.8-2.7 11.7h8.3l0.6 0.6-1 6.5-8.2-0.1-1.1 0.7-3.1 16.8c-0.2 1.8 0.3 2.6 1.6 2.6 1.1 0 2.4-1 5.1-3.9l1.9 0.4 1.8 4.4c-5.7 8.1-11.2 13.4-13.8 13.4z m30.7 0c-4.2 0-7.7-1.1-10.3-3.3-3.5-2.9-5.4-7.6-5.4-13.8 0-7.2 1.9-13.2 5.4-17.7 4.1-5.4 10.4-8.5 18.2-8.5 10.1 0 15.6 5.8 15.6 16.5 0 16.2-9.3 26.8-23.5 26.8z" fill="#FD595E" p-id="2729"></path><path d="M556.9 484.7c-2.6 3-3.9 3.9-5.1 3.9-1.3 0-1.7-0.8-1.6-2.6l3.1-16.8 1.1-0.7 8.2 0.1 1-6.5-0.6-0.6h-8.3c1.2-5.9 2.7-11.7 2.7-11.7l-1.2-1-14.7 3.1s-0.6 5.2-1.2 9.7l-6.3 1-0.7 5.8 0.3 0.4h4.7l0.8 0.7-3.8 21.6c-0.9 7.4 3.4 11.8 11.5 11.8 2.6 0 8.1-5.3 13.8-13.4l-1.8-4.4-1.9-0.4z m28.5-25.3c-7.8 0-14.1 3.1-18.2 8.5-3.4 4.5-5.4 10.5-5.4 17.7 0 6.3 1.9 11 5.4 13.8 2.6 2.1 6 3.3 10.3 3.3 14.2 0 23.6-10.6 23.6-26.8-0.1-10.6-5.6-16.5-15.7-16.5z m-4.6 34c-2.4 0-3.4-2.7-3.4-8.7 0-9.1 1.7-14.8 4.5-14.8 2.4 0 3.3 2.2 3.3 8.5 0 10.5-1.3 15-4.4 15z m-13.6-221.7h-65.1v15.7h130.2v-15.7z m0 393.5h-65.1v15.6h130.2v-15.6z m41.7-360.5h-81.3c-1.4 0-2.5 1.1-2.5 2.5s1.1 2.5 2.5 2.5h81.3c1.4 0 2.5-1.1 2.5-2.5s-1.1-2.5-2.5-2.5z m0 17.3h-81.3c-1.4 0-2.5 1.1-2.5 2.5s1.1 2.5 2.5 2.5h81.3c1.4 0 2.5-1.1 2.5-2.5s-1.1-2.5-2.5-2.5z m0 304.6h-81.3c-1.4 0-2.5 1.1-2.5 2.5s1.1 2.5 2.5 2.5h81.3c1.4 0 2.5-1.1 2.5-2.5s-1.1-2.5-2.5-2.5z m0 17.3h-81.3c-1.4 0-2.5 1.1-2.5 2.5s1.1 2.5 2.5 2.5h81.3c1.4 0 2.5-1.1 2.5-2.5s-1.1-2.5-2.5-2.5z" fill="#313145" p-id="2730"></path><path d="M763.7 343.7l2.4 8.5 82.6 289.5-91.8-321.9h-0.1l6.8 23.9z m-54.8 53.8c0.3 1.2 1.6 1.8 3.2 2.2l-1.5-5.2c-1.4 0.6-2.1 1.8-1.7 3z" fill="#FF7845" p-id="2731"></path><path d="M720.3 437.9h0.6v20.9h-0.6z m0.6 0h0.2v20.9h-0.2z" fill="#3F3F59" p-id="2732"></path><path d="M721.1 437.9h0.2v20.9h-0.2z" fill="#3E3E58" p-id="2733"></path><path d="M721.3 437.9h0.2v20.9h-0.2z" fill="#3E3E57" p-id="2734"></path><path d="M721.4 437.9h0.2v20.9h-0.2z" fill="#3D3D56" p-id="2735"></path><path d="M721.6 437.9h0.2v20.9h-0.2z" fill="#3C3C55" p-id="2736"></path><path d="M721.7 437.9h0.2v20.9h-0.2z" fill="#3B3B54" p-id="2737"></path><path d="M721.9 437.9h0.2v20.9h-0.2z" fill="#3B3B53" p-id="2738"></path><path d="M722.1 437.9h0.2v20.9h-0.2z" fill="#3A3A52" p-id="2739"></path><path d="M722.2 437.9h0.2v20.9h-0.2z" fill="#393951" p-id="2740"></path><path d="M722.4 437.9h0.2v20.9h-0.2z" fill="#383850" p-id="2741"></path><path d="M722.6 437.9h0.2v20.9h-0.2z" fill="#38384F" p-id="2742"></path><path d="M722.7 437.9h0.2v20.9h-0.2z" fill="#37374E" p-id="2743"></path><path d="M722.9 437.9h0.2v20.9h-0.2z" fill="#36364D" p-id="2744"></path><path d="M723.1 437.9h0.2v20.9h-0.2z" fill="#36364C" p-id="2745"></path><path d="M723.2 437.9h0.2v20.9h-0.2z" fill="#35354B" p-id="2746"></path><path d="M723.4 437.9h0.2v20.9h-0.2z" fill="#34344A" p-id="2747"></path><path d="M723.6 437.9h0.2v20.9h-0.2z" fill="#333349" p-id="2748"></path><path d="M723.7 437.9h0.2v20.9h-0.2z" fill="#333348" p-id="2749"></path><path d="M723.9 437.9h0.2v20.9h-0.2z" fill="#323247" p-id="2750"></path><path d="M724 437.9h0.2v20.9h-0.2z" fill="#313146" p-id="2751"></path><path d="M724.2 437.9h0.2v20.9h-0.2z" fill="#303045" p-id="2752"></path><path d="M724.4 437.9h0.2v20.9h-0.2z" fill="#303044" p-id="2753"></path><path d="M724.5 437.9h0.2v20.9h-0.2z" fill="#2F2F43" p-id="2754"></path><path d="M724.7 437.9h0.2v20.9h-0.2z" fill="#2E2E42" p-id="2755"></path><path d="M724.9 437.9h0.2v20.9h-0.2z" fill="#2E2E41" p-id="2756"></path><path d="M725 437.9h0.2v20.9h-0.2z" fill="#2D2D3F" p-id="2757"></path><path d="M725.2 437.9h0.2v20.9h-0.2z" fill="#2C2C3E" p-id="2758"></path><path d="M725.4 437.9h0.2v20.9h-0.2z" fill="#2B2B3D" p-id="2759"></path><path d="M725.5 437.9h0.2v20.9h-0.2z" fill="#2B2B3C" p-id="2760"></path><path d="M725.7 437.9h0.2v20.9h-0.2z" fill="#2A2A3B" p-id="2761"></path><path d="M725.8 437.9h0.2v20.9h-0.2z" fill="#29293A" p-id="2762"></path><path d="M726 437.9h0.2v20.9h-0.2z" fill="#282839" p-id="2763"></path><path d="M726.2 437.9h0.2v20.9h-0.2z" fill="#282838" p-id="2764"></path><path d="M726.3 437.9h0.2v20.9h-0.2z" fill="#272737" p-id="2765"></path><path d="M726.5 437.9h0.2v20.9h-0.2z" fill="#262636" p-id="2766"></path><path d="M726.7 437.9h0.2v20.9h-0.2z" fill="#252535" p-id="2767"></path><path d="M726.8 437.9h0.2v20.9h-0.2z" fill="#252534" p-id="2768"></path><path d="M727 437.9h0.2v20.9h-0.2z" fill="#242433" p-id="2769"></path><path d="M727.2 437.9h0.2v20.9h-0.2z" fill="#232332" p-id="2770"></path><path d="M727.3 437.9h0.2v20.9h-0.2z" fill="#232331" p-id="2771"></path><path d="M727.5 437.9h0.2v20.9h-0.2z" fill="#222230" p-id="2772"></path><path d="M727.7 437.9h0.2v20.9h-0.2z" fill="#21212F" p-id="2773"></path><path d="M727.8 437.9h0.2v20.9h-0.2z" fill="#20202E" p-id="2774"></path><path d="M728 437.9h0.2v20.9h-0.2z" fill="#20202D" p-id="2775"></path><path d="M728.1 437.9h0.2v20.9h-0.2z" fill="#1F1F2C" p-id="2776"></path><path d="M728.3 437.9h0.2v20.9h-0.2z" fill="#1E1E2B" p-id="2777"></path><path d="M728.5 437.9h0.2v20.9h-0.2z" fill="#1D1D2A" p-id="2778"></path><path d="M728.6 437.9h0.2v20.9h-0.2z" fill="#1D1D29" p-id="2779"></path><path d="M728.8 437.9h0.2v20.9h-0.2z" fill="#1C1C28" p-id="2780"></path><path d="M778.4 632.1l-2.1-7.4c0.5 2 1.1 4.2 1.8 6.6 0.1 0.3 0.2 0.5 0.3 0.8zM856.2 668l-5.1-17.8z" fill="#FF7845" p-id="2781"></path><path d="M766.1 352.2l-2.4-8.5h-0.1l2.5 8.5zM851.1 650.2l-2.4-8.5zM848.7 641.7l2.4 8.5-2.4-8.5zM706.5 535.1c3.6-1 5.6-4.7 4.6-8.3-1-3.6-4.7-5.6-8.3-4.6-3.6 1-5.6 4.7-4.6 8.3 1 3.6 4.7 5.7 8.3 4.6z" fill="#FFFFFF" p-id="2782"></path><path d="M699.6 511.3c1.3-0.4 2.1-1.8 1.7-3.1l-29.8-104.4c-0.4-1.3-1.8-2.1-3.1-1.7-1.3 0.4-2.1 1.8-1.7 3.1l29.8 104.4c0.4 1.3 1.8 2.1 3.1 1.7zM709.6 546.1c-1.3 0.4-2.1 1.8-1.7 3.1l29.8 104.4c0.4 1.3 1.8 2.1 3.1 1.7 1.3-0.4 2.1-1.8 1.7-3.1l-29.8-104.4c-0.4-1.3-1.8-2-3.1-1.7z" fill="#FD595E" p-id="2783"></path><path d="M756.8 319.8l-62.4 17.8 62.4-17.8zM793.8 685.8l62.4-17.8-62.4 17.8zM717.9 413.5c-0.3-1-1.2-1.6-2.5-2l1.3 4.4c1-0.6 1.5-1.5 1.2-2.4z" fill="#E08605" p-id="2784"></path><path d="M755.9 567.5h0.8v23.8h-0.8z" fill="#3F3F59" p-id="2785"></path><path d="M756.6 567.5h0.3v23.8h-0.3z" fill="#3F3F59" p-id="2786"></path><path d="M756.9 567.5h0.3v23.8h-0.3z" fill="#3E3E58" p-id="2787"></path><path d="M757.1 567.5h0.3v23.8h-0.3z" fill="#3E3E57" p-id="2788"></path><path d="M757.4 567.5h0.3v23.8h-0.3z" fill="#3D3D56" p-id="2789"></path><path d="M757.7 567.5h0.3v23.8h-0.3z" fill="#3C3C55" p-id="2790"></path><path d="M757.9 567.5h0.3v23.8h-0.3z" fill="#3B3B54" p-id="2791"></path><path d="M758.2 567.5h0.3v23.8h-0.3z" fill="#3B3B53" p-id="2792"></path><path d="M758.4 567.5h0.3v23.8h-0.3z" fill="#3A3A52" p-id="2793"></path><path d="M758.7 567.5h0.3v23.8h-0.3z" fill="#393951" p-id="2794"></path><path d="M758.9 567.5h0.3v23.8h-0.3z" fill="#383850" p-id="2795"></path><path d="M759.2 567.5h0.3v23.8h-0.3z" fill="#38384F" p-id="2796"></path><path d="M759.5 567.5h0.3v23.8h-0.3z" fill="#37374E" p-id="2797"></path><path d="M759.7 567.5h0.3v23.8h-0.3z" fill="#36364D" p-id="2798"></path><path d="M760 567.5h0.3v23.8h-0.3z" fill="#36364C" p-id="2799"></path><path d="M760.2 567.5h0.3v23.8h-0.3z" fill="#35354B" p-id="2800"></path><path d="M760.5 567.5h0.3v23.8h-0.3z" fill="#34344A" p-id="2801"></path><path d="M760.7 567.5h0.3v23.8h-0.3z" fill="#333349" p-id="2802"></path><path d="M761 567.5h0.3v23.8h-0.3z" fill="#333348" p-id="2803"></path><path d="M761.3 567.5h0.3v23.8h-0.3z" fill="#323247" p-id="2804"></path><path d="M761.5 567.5h0.3v23.8h-0.3z" fill="#313146" p-id="2805"></path><path d="M761.8 567.5h0.3v23.8h-0.3z" fill="#303045" p-id="2806"></path><path d="M762 567.5h0.3v23.8h-0.3z" fill="#303044" p-id="2807"></path><path d="M762.3 567.5h0.3v23.8h-0.3z" fill="#2F2F43" p-id="2808"></path><path d="M762.5 567.5h0.3v23.8h-0.3z" fill="#2E2E42" p-id="2809"></path><path d="M762.8 567.5h0.3v23.8h-0.3z" fill="#2E2E41" p-id="2810"></path><path d="M763.1 567.5h0.3v23.8h-0.3z" fill="#2D2D3F" p-id="2811"></path><path d="M763.3 567.5h0.3v23.8h-0.3z" fill="#2C2C3E" p-id="2812"></path><path d="M763.6 567.5h0.3v23.8h-0.3z" fill="#2B2B3D" p-id="2813"></path><path d="M763.8 567.5h0.3v23.8h-0.3z" fill="#2B2B3C" p-id="2814"></path><path d="M764.1 567.5h0.3v23.8h-0.3z" fill="#2A2A3B" p-id="2815"></path><path d="M764.3 567.5h0.3v23.8h-0.3z" fill="#29293A" p-id="2816"></path><path d="M764.6 567.5h0.3v23.8h-0.3z" fill="#282839" p-id="2817"></path><path d="M764.9 567.5h0.3v23.8h-0.3z" fill="#282838" p-id="2818"></path><path d="M765.1 567.5h0.3v23.8h-0.3z" fill="#272737" p-id="2819"></path><path d="M765.4 567.5h0.3v23.8h-0.3z" fill="#262636" p-id="2820"></path><path d="M765.6 567.5h0.3v23.8h-0.3z" fill="#252535" p-id="2821"></path><path d="M765.9 567.5h0.3v23.8h-0.3z" fill="#252534" p-id="2822"></path><path d="M766.1 567.5h0.3v23.8h-0.3z" fill="#242433" p-id="2823"></path><path d="M766.4 567.5h0.3v23.8h-0.3z" fill="#232332" p-id="2824"></path><path d="M766.7 567.5h0.3v23.8h-0.3z" fill="#232331" p-id="2825"></path><path d="M766.9 567.5h0.3v23.8h-0.3z" fill="#222230" p-id="2826"></path><path d="M767.2 567.5h0.3v23.8h-0.3z" fill="#21212F" p-id="2827"></path><path d="M767.4 567.5h0.3v23.8h-0.3z" fill="#20202E" p-id="2828"></path><path d="M767.7 567.5h0.3v23.8h-0.3z" fill="#20202D" p-id="2829"></path><path d="M767.9 567.5h0.3v23.8h-0.3z" fill="#1F1F2C" p-id="2830"></path><path d="M768.2 567.5h0.3v23.8h-0.3z" fill="#1E1E2B" p-id="2831"></path><path d="M768.5 567.5h0.3v23.8h-0.3z" fill="#1D1D2A" p-id="2832"></path><path d="M768.7 567.5h0.3v23.8h-0.3z" fill="#1D1D29" p-id="2833"></path><path d="M769 567.5h0.3v23.8h-0.3z" fill="#1C1C28" p-id="2834"></path><path d="M769.2 567.5h0.8v23.8h-0.8z" fill="#1C1C28" p-id="2835"></path><path d="M756.8 319.8l-62.4 17.8-62.8 17.9 6.8 24 62.8-18 62.4-17.8z" fill="#313145" p-id="2836"></path><path d="M743.5 524.1h0.8v23.8h-0.8z" fill="#3F3F59" p-id="2837"></path><path d="M744.2 524.1h0.3v23.8h-0.3z" fill="#3F3F59" p-id="2838"></path><path d="M744.5 524.1h0.3v23.8h-0.3z" fill="#3E3E58" p-id="2839"></path><path d="M744.7 524.1h0.3v23.8h-0.3z" fill="#3E3E57" p-id="2840"></path><path d="M745 524.1h0.3v23.8h-0.3z" fill="#3D3D56" p-id="2841"></path><path d="M745.3 524.1h0.3v23.8h-0.3z" fill="#3C3C55" p-id="2842"></path><path d="M745.5 524.1h0.3v23.8h-0.3z" fill="#3B3B54" p-id="2843"></path><path d="M745.8 524.1h0.3v23.8h-0.3z" fill="#3B3B53" p-id="2844"></path><path d="M746 524.1h0.3v23.8h-0.3z" fill="#3A3A52" p-id="2845"></path><path d="M746.3 524.1h0.3v23.8h-0.3z" fill="#393951" p-id="2846"></path><path d="M746.5 524.1h0.3v23.8h-0.3z" fill="#383850" p-id="2847"></path><path d="M746.8 524.1h0.3v23.8h-0.3z" fill="#38384F" p-id="2848"></path><path d="M747.1 524.1h0.3v23.8h-0.3z" fill="#37374E" p-id="2849"></path><path d="M747.3 524.1h0.3v23.8h-0.3z" fill="#36364D" p-id="2850"></path><path d="M747.6 524.1h0.3v23.8h-0.3z" fill="#36364C" p-id="2851"></path><path d="M747.8 524.1h0.3v23.8h-0.3z" fill="#35354B" p-id="2852"></path><path d="M748.1 524.1h0.3v23.8h-0.3z" fill="#34344A" p-id="2853"></path><path d="M748.3 524.1h0.3v23.8h-0.3z" fill="#333349" p-id="2854"></path><path d="M748.6 524.1h0.3v23.8h-0.3z" fill="#333348" p-id="2855"></path><path d="M748.9 524.1h0.3v23.8h-0.3z" fill="#323247" p-id="2856"></path><path d="M749.1 524.1h0.3v23.8h-0.3z" fill="#313146" p-id="2857"></path><path d="M749.4 524.1h0.3v23.8h-0.3z" fill="#303045" p-id="2858"></path><path d="M749.6 524.1h0.3v23.8h-0.3z" fill="#303044" p-id="2859"></path><path d="M749.9 524.1h0.3v23.8h-0.3z" fill="#2F2F43" p-id="2860"></path><path d="M750.2 524.1h0.3v23.8h-0.3z" fill="#2E2E42" p-id="2861"></path><path d="M750.4 524.1h0.3v23.8h-0.3z" fill="#2E2E41" p-id="2862"></path><path d="M750.7 524.1h0.3v23.8h-0.3z" fill="#2D2D3F" p-id="2863"></path><path d="M750.9 524.1h0.3v23.8h-0.3z" fill="#2C2C3E" p-id="2864"></path><path d="M751.2 524.1h0.3v23.8h-0.3z" fill="#2B2B3D" p-id="2865"></path><path d="M751.4 524.1h0.3v23.8h-0.3z" fill="#2B2B3C" p-id="2866"></path><path d="M751.7 524.1h0.3v23.8h-0.3z" fill="#2A2A3B" p-id="2867"></path><path d="M752 524.1h0.3v23.8h-0.3z" fill="#29293A" p-id="2868"></path><path d="M752.2 524.1h0.3v23.8h-0.3z" fill="#282839" p-id="2869"></path><path d="M752.5 524.1h0.3v23.8h-0.3z" fill="#282838" p-id="2870"></path><path d="M752.7 524.1h0.3v23.8h-0.3z" fill="#272737" p-id="2871"></path><path d="M753 524.1h0.3v23.8h-0.3z" fill="#262636" p-id="2872"></path><path d="M753.2 524.1h0.3v23.8h-0.3z" fill="#252535" p-id="2873"></path><path d="M753.5 524.1h0.3v23.8h-0.3z" fill="#252534" p-id="2874"></path><path d="M753.8 524.1h0.3v23.8h-0.3z" fill="#242433" p-id="2875"></path><path d="M754 524.1h0.3v23.8h-0.3z" fill="#232332" p-id="2876"></path><path d="M754.3 524.1h0.3v23.8h-0.3z" fill="#232331" p-id="2877"></path><path d="M754.5 524.1h0.3v23.8h-0.3z" fill="#222230" p-id="2878"></path><path d="M754.8 524.1h0.3v23.8h-0.3z" fill="#21212F" p-id="2879"></path><path d="M755 524.1h0.3v23.8h-0.3z" fill="#20202E" p-id="2880"></path><path d="M755.3 524.1h0.3v23.8h-0.3z" fill="#20202D" p-id="2881"></path><path d="M755.6 524.1h0.3v23.8h-0.3z" fill="#1F1F2C" p-id="2882"></path><path d="M755.8 524.1h0.3v23.8h-0.3z" fill="#1E1E2B" p-id="2883"></path><path d="M756.1 524.1h0.3v23.8h-0.3z" fill="#1D1D2A" p-id="2884"></path><path d="M756.3 524.1h0.3v23.8h-0.3z" fill="#1D1D29" p-id="2885"></path><path d="M756.6 524.1h0.3v23.8h-0.3z" fill="#1C1C28" p-id="2886"></path><path d="M756.8 524.1h0.8v23.8h-0.8z" fill="#1C1C28" p-id="2887"></path><path d="M851.1 650.2L788.7 668l-62.8 17.9-2.4-8.5 62.8-17.9 62.4-17.8-82.6-289.5-62.5 17.8-62.8 17.9 90.1 315.8 62.8-17.9 62.4-17.8-5-17.8z m-105.2-65.8c-3.5-12.1 0.8-20.6 12.1-24 0.1 0 0.3-0.1 0.4-0.1 10.9-3.1 18 1.3 21.3 12.8 3.4 11.9-0.7 20.5-11.3 24-0.4 0.1-0.7 0.3-1.1 0.4-10.6 3-18.1-1.6-21.4-13.1z m-20.7-79.1l-5.4-19c-0.6-2.2-1.2-2.7-2.7-2.2-0.6 0.2-1.4 0.5-1.4 0.5l-0.7-0.6-0.7-4.2 7.1-2c3.2-0.9 10.8-3.4 10.8-3.4l1 5c-2.2 1.1-2.5 1.7-2.1 3.7l1.6 6.7 4.7-1.2h0.2c2.3-0.7 3.4-1 4.4-1.4l-1.9-6.5c-0.6-2.2-1.2-2.7-2.7-2.2l-1.5 0.5-0.7-0.6-0.7-4.2 8.8-2.5c2.4-0.7 9.6-3 9.6-3l1 4.9c-2.5 1.2-2.9 1.8-2.4 3.9 0.9 4.5 3 12.5 5 19.6 0.8 2.7 1.6 3.5 3.2 3.1 0.8-0.2 1.5-0.6 1.5-0.6l0.6 0.5 0.8 4.7s-4.9 1.3-9.4 2.6c-2.5 0.7-9.1 2.7-9.1 2.7l-0.9-4.9c2.6-0.8 3.3-2.2 2.4-5.2l-1.6-5.6s-1.9 0.5-3.2 0.9c-0.3 0.1-0.7 0.2-1.2 0.4-1.9 0.7-4.9 1.9-4.9 1.9l1.6 5.5c0.9 3.1 1.4 3.7 2.8 3.3 1-0.3 1.4-0.6 1.4-0.6l0.6 0.4 0.8 4.7s-6.7 1.7-8.9 2.3c-3.4 1-9 2.9-9 2.9l-0.9-4.8c2.5-1.9 2.9-2.9 2.1-6z m20.4 11.7c0.1 0 0.3-0.1 0.4-0.1 10.9-3.1 18 1.3 21.3 12.8 3.4 11.9-0.7 20.5-11.3 24-0.4 0.1-0.7 0.3-1.1 0.4-10.6 3-18.1-1.6-21.4-13.1-3.4-12.1 0.8-20.6 12.1-24z m48 119.7s-6.2 1.5-12.9 3.3l-3.3 0.9c-5.6 1.6-11.4 3.8-11.4 3.8l-0.9-5.2c2.6-1.2 3.1-2.5 2.2-5.8l-5.3-18.5c-0.6-2.2-1.2-2.7-2.7-2.2-0.6 0.2-1.4 0.5-1.4 0.5l-0.7-0.6-0.7-4.2 8.8-2.5c1.1-0.3 3.3-1 5.4-1.7 3-0.9 5.9-1.9 5.9-1.9l0.9 5.5c-3.7 1.5-4.4 2.3-4 4.2 0.8 3.6 1.7 7.5 3 12.4l2.1 7.4c0.5 1.1 1.2 1.4 2.4 1 3.9-1.1 4.4-3 2.7-10.4l6.8-2.7 0.9 0.6s1.2 7.3 2.9 15l-0.7 1.1z m0.7-112.1L824.1 629c0.4 1.3-0.4 2.7-1.7 3.1-1.3 0.4-2.7-0.4-3.1-1.7L789.5 526c-0.4-1.3 0.4-2.7 1.7-3.1 1.3-0.4 2.7 0.4 3.1 1.7z m-1.6-21c1 3.6-1 7.3-4.6 8.3-3.6 1-7.3-1-8.3-4.6-1-3.6 1-7.3 4.6-8.3 3.5-1.1 7.2 1 8.3 4.6z m-42.6-124.8c1.3-0.4 2.7 0.4 3.1 1.7L783 484.9c0.4 1.3-0.4 2.7-1.7 3.1-1.3 0.4-2.7-0.4-3.1-1.7l-29.8-104.4c-0.4-1.3 0.3-2.7 1.7-3.1z m-13.5 49.6s0.3 5.4 1.8 12.2l-8.3 2.9s-0.3-1.5-0.8-3.2c-0.8-3-2.2-3.8-4.9-3-0.5 0.2-1 0.3-1.4 0.6l6 20.9c0.6 0.1 1.2 0 1.9-0.1 2.8-0.8 3.5-2.8 2.5-7.6l8.2-2.9s1.2 6.6 2.7 11.9l-0.5 1.1s-5.3 3.8-12.4 5.8h-0.1c-10.1 2.8-17.9-2-21.1-13.1-3.2-11.2 0.6-19.4 10.7-23.5 1-0.4 2-0.8 3.1-1.1 4.7-1.3 11.9-1.9 11.9-1.9l0.7 1z m-28.2-41.5c0.8-0.3 1.6-0.6 2.4-0.8 6-1.7 10.9-1.5 10.9-1.5l1 1s0.3 4.9 1.2 10l-6.2 2.3-0.8-0.2-0.3-0.9c-0.7-2.6-2.5-3.4-5.1-2.7a3 3 0 0 0-1 0.4l1.5 5.2c1.4 0.3 3.2 0.5 5.1 0.7 5 0.6 10.6 1.7 12.3 7.7 1.8 6.4-2.2 12-10.6 15.3-1 0.4-2.1 0.8-3.2 1.1-6.4 1.8-11.5 0.7-11.5 0.7l-0.9-0.8s-0.6-5.7-1.4-9.4l6.8-2.5c1.1 3.9 3.3 5.1 6.4 4.2 0.7-0.2 1.3-0.5 1.8-0.8l-1.3-4.4c-1.8-0.6-4.3-0.7-6.9-1.1-4.7-0.7-9.7-2.1-11.3-7.8-1.9-6.5 2.6-12.6 11.1-15.7z m-11.9 122.7l-29.8-104.4c-0.4-1.3 0.4-2.7 1.7-3.1 1.3-0.4 2.7 0.4 3.1 1.7l29.8 104.4c0.4 1.3-0.4 2.7-1.7 3.1-1.3 0.4-2.7-0.4-3.1-1.7z m1.7 20.9c-1-3.6 1-7.3 4.6-8.3 3.6-1 7.3 1 8.3 4.6 1 3.6-1 7.3-4.6 8.3a6.6 6.6 0 0 1-8.3-4.6z m11.4 15.6c1.3-0.4 2.7 0.4 3.1 1.7l29.8 104.4c0.4 1.3-0.4 2.7-1.7 3.1-1.3 0.4-2.7-0.4-3.1-1.7l-29.8-104.4c-0.4-1.3 0.4-2.7 1.7-3.1z" fill="#313145" p-id="2888"></path><path d="M763.6 343.7l-62.4 17.8-62.8 18 2.5 8.4 62.7-17.9 62.5-17.8z" fill="#FFFFFF" p-id="2889"></path><path d="M848.7 641.7l-62.4 17.8-62.8 18 2.4 8.4 62.8-17.9 62.4-17.8z" fill="#FFFFFF" p-id="2890"></path><path d="M729.5 408.1c-1.7-6.1-7.4-7.1-12.3-7.7-1.9-0.2-3.6-0.4-5.1-0.7-1.7-0.4-2.9-1-3.2-2.2-0.3-1.2 0.4-2.4 1.7-3a3 3 0 0 1 1-0.4c2.6-0.7 4.4 0.1 5.1 2.7l0.3 0.9 0.8 0.2 6.2-2.3c-1-5.1-1.2-10-1.2-10l-1-1s-4.9-0.3-10.9 1.5c-0.8 0.2-1.6 0.5-2.4 0.8-8.6 3.2-13 9.3-11.2 15.8 1.6 5.7 6.6 7.1 11.3 7.8 2.6 0.4 5.1 0.6 6.9 1.1 1.3 0.4 2.2 1 2.5 2 0.3 0.9-0.2 1.8-1.2 2.5-0.5 0.3-1.1 0.6-1.8 0.8-3.1 0.9-5.3-0.3-6.4-4.2l-6.8 2.5c0.9 3.7 1.4 9.4 1.4 9.4l0.9 0.8s5.1 1.1 11.5-0.7c1.1-0.3 2.2-0.7 3.2-1.1 8.5-3.5 12.5-9.1 10.7-15.5z" fill="#FFFFFF" p-id="2891"></path><path d="M741.6 448.1l-8.2 2.9c0.9 4.8 0.3 6.8-2.5 7.6-0.6 0.2-1.3 0.2-1.9 0.1-2.8-0.4-4.9-3.8-6.9-10.5-1.8-6.2-1.6-9 0.9-10.4 0.4-0.2 0.9-0.4 1.4-0.6 2.7-0.8 4.1 0 4.9 3 0.5 1.7 0.8 3.2 0.8 3.2l8.3-2.9c-1.5-6.8-1.8-12.2-1.8-12.2l-0.8-1s-7.2 0.5-11.9 1.9c-1.1 0.3-2.1 0.7-3.1 1.1-10.1 4.1-13.9 12.3-10.7 23.5 3.2 11.1 11 15.9 21.1 13.1h0.1c7.1-2 12.4-5.8 12.4-5.8l0.5-1.1c-1.5-5.3-2.6-11.9-2.6-11.9z" fill="#FFFFFF" p-id="2892"></path><path d="M761.6 499.7l-0.6-0.5s-0.7 0.4-1.5 0.6c-1.6 0.5-2.4-0.3-3.2-3.1-2-7-4.1-15-5-19.6-0.5-2.1-0.1-2.7 2.4-3.9l-1-4.9s-7.2 2.4-9.6 3l-8.8 2.5 0.7 4.2 0.7 0.6 1.5-0.5c1.5-0.4 2.1 0.1 2.7 2.2l1.9 6.5c-1 0.4-2 0.8-4.4 1.4h-0.2l-4.7 1.2-1.5-6.4c-0.5-2-0.1-2.6 2.1-3.7l-1-5s-7.6 2.5-10.8 3.4l-7.1 2 0.7 4.2 0.7 0.6s0.8-0.3 1.4-0.5c1.5-0.4 2.1 0 2.7 2.2l5.4 19c0.9 3.1 0.5 4.1-2.3 5.5l0.9 4.8s5.6-1.9 9-2.9c2.2-0.6 8.9-2.3 8.9-2.3l-0.8-4.7-0.6-0.4s-0.4 0.3-1.4 0.6c-1.4 0.4-2-0.2-2.8-3.3l-1.6-5.5s3-1.2 4.9-1.9c0.5-0.2 0.9-0.3 1.2-0.4l3.2-0.9 1.6 5.6c0.8 3 0.2 4.4-2.4 5.2l0.9 4.9s6.6-1.9 9.1-2.7c4.5-1.3 9.4-2.6 9.4-2.6l-0.7-4.5z" fill="#FFFFFF" p-id="2893"></path><path d="M767.3 529.7c-3.3-11.6-10.5-15.9-21.3-12.8-0.1 0-0.3 0.1-0.4 0.1-11.3 3.4-15.5 11.9-12.1 24 3.3 11.5 10.8 16.1 21.4 13.1 0.4-0.1 0.8-0.2 1.1-0.4 10.7-3.5 14.7-12.1 11.3-24z m-13.2 17.2h-0.1c-3.6 1-5.8-2.2-8.7-12.2-1.8-6.4-1.4-9.2 1.7-10 0.2-0.1 0.5-0.1 0.7-0.2 3.2-0.4 5.4 2.9 8 12.2 1.9 6.4 1.4 9.2-1.6 10.2z" fill="#FFFFFF" p-id="2894"></path><path d="M779.7 573.1c-3.3-11.6-10.5-15.9-21.3-12.8-0.2 0-0.3 0.1-0.4 0.1-11.3 3.4-15.5 11.9-12.1 24 3.3 11.5 10.8 16.1 21.4 13.1 0.4-0.1 0.8-0.2 1.1-0.4 10.6-3.5 14.7-12.1 11.3-24z m-13.2 17.2h-0.1c-3.6 1-5.8-2.2-8.7-12.2-1.8-6.4-1.4-9.2 1.7-10 0.2-0.1 0.5-0.1 0.7-0.2 3.3-0.4 5.4 2.9 8 12.2 1.9 6.4 1.4 9.3-1.6 10.2z" fill="#FFFFFF" p-id="2895"></path><path d="M778.4 632.1c-0.1-0.2-0.2-0.5-0.3-0.7-0.7-2.4-1.3-4.6-1.8-6.6-1.3-4.9-2.2-8.8-3-12.4-0.4-1.9 0.3-2.8 4-4.2l-0.9-5.5s-2.9 0.9-5.9 1.9c-2.1 0.7-4.3 1.3-5.4 1.7l-8.8 2.5 0.7 4.2 0.7 0.6s0.8-0.3 1.4-0.5c1.5-0.4 2.1 0 2.7 2.2l5.3 18.5c0.9 3.3 0.4 4.6-2.2 5.8l0.9 5.2s5.8-2.2 11.4-3.8l3.3-0.9-2.1-8z" fill="#FFFFFF" p-id="2896"></path><path d="M794.1 635.6c-1.7-7.8-2.9-15-2.9-15l-0.9-0.6-6.8 2.7c1.7 7.5 1.2 9.3-2.7 10.4-1.2 0.4-1.9 0.1-2.4-1l2.3 7.9c6.7-1.8 12.9-3.3 12.9-3.3l0.5-1.1z" fill="#FFFFFF" p-id="2897"></path><path d="M784.4 499c-3.6 1-5.6 4.7-4.6 8.3 1 3.6 4.7 5.6 8.3 4.6 3.6-1 5.6-4.7 4.6-8.3-1.1-3.6-4.8-5.7-8.3-4.6z" fill="#FFFFFF" p-id="2898"></path><path d="M781.2 488c1.3-0.4 2.1-1.8 1.7-3.1l-29.8-104.4c-0.4-1.3-1.8-2.1-3.1-1.7-1.3 0.4-2.1 1.8-1.7 3.1l29.8 104.4c0.4 1.3 1.8 2.1 3.1 1.7z" fill="#FD595E" p-id="2899"></path><path d="M791.2 522.9c-1.3 0.4-2.1 1.8-1.7 3.1l29.8 104.4c0.4 1.3 1.8 2.1 3.1 1.7 1.3-0.4 2.1-1.8 1.7-3.1l-29.8-104.4c-0.4-1.3-1.8-2.1-3.1-1.7z" fill="#FD595E" p-id="2900"></path><path d="M430.2 231.7m-45.2 0a45.2 45.2 0 1 0 90.4 0 45.2 45.2 0 1 0-90.4 0Z" fill="#313145" p-id="2901"></path><path d="M561.7 201.4m-45.2 0a45.2 45.2 0 1 0 90.4 0 45.2 45.2 0 1 0-90.4 0Z" fill="#313145" p-id="2902"></path><path d="M365.2 240.1a8.57 8.57 0 0 1-1.6-6c0.2-1.1 2.6-1.8 4.2-2.8 0.4 1.5 0.6 2.4 0.8 3.2-1.3 0.7-2.4 1.4-3.8 2.2 2 1.4 5-1.3 5.3 3.5-1.8 0.1-4.2 0.8-4.9-0.1zM623.1 180c0.4-1.8-0.1-4.5-1.2-6.1-0.7-0.9-3.1-0.5-5-0.7 0.4 1.5 0.6 2.4 0.8 3.2 1.5 0.1 2.7 0.2 4.4 0.3-1.2 2.1-5 1-3.2 5.5 1.5-0.7 3.9-1.1 4.2-2.2z m-10.1 3.8c-0.1 0-0.2 0.1-0.3 0.1-6.9 2.3-6.9 2.3-6.1 10.1 2.6 27.2-11.7 48.8-35.9 54.3-22.8 5.3-43.6-6.1-55.1-30.4-2.5-5.2-4.1-10.8-5.8-16.3-1.3-4.1-2-5.1-5.9-5.3-8.5-0.4-17.2 1.6-24.7 5.8-3.3 1.9-3.6 3.2-2.9 7.4 0.9 5.7 1.9 11.5 2 17.2 0.4 26.9-13.2 46.3-36 51.7-24.2 5.7-46.5-7.3-56.2-32.9-2.8-7.3-2.8-7.3-10-6.4h-0.3c-3.4 0.4-4.8-0.8-5.6-5-0.6-3.4 1.7-3.7 3.7-4.1 0.4-0.1 0.9-0.2 1.4-0.3 3-0.4 4.8-2.2 5.7-5.3 0.4-1.5 0.8-3.1 1.3-4.6 6.1-22.9 22.4-33.9 41.5-36.2 14.4-1.7 27.9 2.3 40.3 11.1 3.3 2.3 6.3 2.5 9.4 0.4 5.2-3.5 10.7-5.7 16.4-6.8 5.1-1.2 10.4-1.5 16-0.7 3.7 0.5 6.3-1 8.2-4.5 7.3-13.4 17.6-23 31.3-27.8 18.2-6.4 37.7-3.8 53.3 14.1 1 1.2 2.1 2.4 3.2 3.6 2.1 2.4 4.6 3.2 7.4 2.2l1.3-0.3c2.1-0.5 4.2-1.3 5.2 2.1 1.2 3.9 0.5 5.6-2.8 6.8z m-147.2 22.3c-5.5-8.3-13-13.6-22-16-14.2-3.7-27.8-2.4-40 6-16.5 11.4-21.3 31.3-12.4 51.2 7.4 16.5 19.3 26 35.9 27.7 16.7 1.7 30.2-4.7 39.8-19.5 4.6-7.1 6.9-17.6 5.9-26-0.5 0.5-0.8 0.9-1.4 1.6 0 1.1-0.1 2.1-0.2 3.2 0 0.5-0.1 1-0.1 1.5-0.1 0.7-1.2 0.7-1.2-0.1-0.2-4.7 0.2-9.4-0.5-14.2-0.1-0.6 0.8-0.9 1-0.2 0.5 1.7 0.8 3.5 0.9 5.2 0.4-0.1 0.9-0.3 1.3-0.4-0.1-7.3-2.9-13.9-7-20z m103.1-48.4c-14.7-2.2-27.4 2.6-38.5 12.3-7 6.1-11.3 14.2-12.6 24.1-1 7.3-0.6 14.5 2.5 21.1 0.5 0 1-0.1 1.4-0.2-0.6-1.6-1.1-3.3-1.4-5-0.1-0.6 0.8-0.8 1-0.2 1.5 4.6 3.9 8.6 5.9 12.9 0.3 0.7-0.7 1.2-1.1 0.6-0.3-0.4-0.5-0.9-0.8-1.3-0.6-0.9-1.1-1.9-1.6-2.8-0.9-0.3-1.3-0.5-2-0.8 2.8 7.9 9.5 16.3 16.8 20.7 15.1 9.1 30 8.8 44.3-0.1 14.1-8.8 20.6-22.6 20-40.7-1-21.9-14-37.7-33.9-40.6z" fill="#FD595E" p-id="2903"></path><path d="M416.3 233.1c-0.4 0-0.7-0.1-1-0.4-0.5-0.5-0.5-1.4 0-2l22-22c0.5-0.5 1.4-0.5 2 0 0.5 0.5 0.5 1.4 0 2l-22 22c-0.3 0.3-0.7 0.4-1 0.4z" fill="#FD595E" p-id="2904"></path><path d="M414 256.9c-0.4 0-0.7-0.1-1-0.4-0.5-0.5-0.5-1.4 0-2l29.9-29.9c0.5-0.5 1.4-0.5 2 0 0.5 0.5 0.5 1.4 0 2L415 256.5c-0.2 0.3-0.6 0.4-1 0.4z" fill="#FD595E" p-id="2905"></path><path d="M547.3 201.9c-0.4 0-0.7-0.1-1-0.4-0.5-0.5-0.5-1.4 0-2l22-22c0.5-0.5 1.4-0.5 2 0 0.5 0.5 0.5 1.4 0 2l-22 22c-0.3 0.2-0.7 0.4-1 0.4z" fill="#FD595E" p-id="2906"></path><path d="M545 225.7c-0.4 0-0.7-0.1-1-0.4-0.5-0.5-0.5-1.4 0-2l29.9-29.9c0.5-0.5 1.4-0.5 2 0 0.5 0.5 0.5 1.4 0 2L546 225.3c-0.3 0.2-0.6 0.4-1 0.4z" fill="#FD595E" p-id="2907"></path><path d="M885.5 540.6c5.7 6.5 5.1 16.4-1.4 22.2-6.5 5.7-16.4 5.1-22.2-1.4-5.7-6.5-5.1-16.4 1.4-22.2a15.7 15.7 0 0 1 22.2 1.4z m-17.2 15.1c2.6 3 7.1 3.3 10.1 0.7 3-2.6 3.3-7.1 0.7-10.1-2.6-3-7.1-3.3-10.1-0.7-3 2.6-3.3 7.1-0.7 10.1z" fill="#FFFFFF" p-id="2908"></path><path d="M440.5 848.6c5.7 6.5 5.1 16.4-1.4 22.2-6.5 5.7-16.4 5.1-22.2-1.4-5.7-6.5-5.1-16.4 1.4-22.2a15.7 15.7 0 0 1 22.2 1.4z m-17.2 15.1c2.6 3 7.1 3.3 10.1 0.7 3-2.6 3.3-7.1 0.7-10.1-2.6-3-7.1-3.3-10.1-0.7-3 2.6-3.3 7.1-0.7 10.1z" fill="#FFFFFF" p-id="2909"></path><path d="M166.2 530.9c-6.1 11.6-20.5 16-32.1 9.9-11.6-6.1-16-20.5-9.9-32.1 6.1-11.6 20.5-16 32.1-9.9 11.5 6.2 16 20.6 9.9 32.1z m-34.4-18.1c-3.9 7.4-1.1 16.6 6.3 20.5 7.4 3.9 16.6 1.1 20.5-6.3s1.1-16.6-6.3-20.5c-7.4-4-16.6-1.1-20.5 6.3z" fill="#FFFFFF" p-id="2910"></path><path d="M861.8 444c0.9 1 0.8 2.5-0.2 3.3l-11.3 9.9c-1 0.9-2.5 0.8-3.3-0.2-0.9-1-0.8-2.5 0.2-3.3l11.3-9.9c0.9-0.9 2.4-0.8 3.3 0.2zM890.5 418.8c0.9 1 0.8 2.5-0.2 3.3L879 432c-1 0.9-2.5 0.8-3.3-0.2-0.9-1-0.8-2.5 0.2-3.3l11.3-9.9c0.9-0.9 2.4-0.8 3.3 0.2z" fill="#FFFFFF" p-id="2911"></path><path d="M852.9 416.4l9.9 11.3c0.9 1 0.8 2.5-0.2 3.3-1 0.9-2.5 0.8-3.3-0.2l-9.9-11.3c-0.9-1-0.8-2.5 0.2-3.3s2.5-0.8 3.3 0.2zM878.1 445l9.9 11.3c0.9 1 0.8 2.5-0.2 3.3s-2.5 0.8-3.3-0.2l-9.9-11.3c-0.9-1-0.8-2.5 0.2-3.3 0.9-0.8 2.4-0.7 3.3 0.2z" fill="#FFFFFF" p-id="2912"></path><path d="M269.9 277.7c0.9 1 0.8 2.5-0.2 3.3l-11.3 9.9c-1 0.9-2.5 0.8-3.3-0.2-0.9-1-0.8-2.5 0.2-3.3l11.3-9.9c1-0.9 2.5-0.8 3.3 0.2zM298.6 252.5c0.9 1 0.8 2.5-0.2 3.3l-11.3 9.9c-1 0.9-2.5 0.8-3.3-0.2-0.9-1-0.8-2.5 0.2-3.3l11.3-9.9c1-0.8 2.5-0.7 3.3 0.2z" fill="#FFFFFF" p-id="2913"></path><path d="M261.1 250.1l9.9 11.3c0.9 1 0.8 2.5-0.2 3.3-1 0.9-2.5 0.8-3.3-0.2l-9.9-11.3c-0.9-1-0.8-2.5 0.2-3.3 0.9-0.9 2.4-0.8 3.3 0.2zM286.3 278.8l9.9 11.3c0.9 1 0.8 2.5-0.2 3.3-1 0.9-2.5 0.8-3.3-0.2l-9.9-11.3c-0.9-1-0.8-2.5 0.2-3.3 0.9-0.9 2.4-0.8 3.3 0.2z" fill="#FFFFFF" p-id="2914"></path><path d="M538.9 853.7c0.9 1 0.8 2.5-0.2 3.3l-11.3 9.9c-1 0.9-2.5 0.8-3.3-0.2-0.9-1-0.8-2.5 0.2-3.3l11.3-9.9c1-0.9 2.5-0.8 3.3 0.2zM567.6 828.5c0.9 1 0.8 2.5-0.2 3.3l-11.3 9.9c-1 0.9-2.5 0.8-3.3-0.2-0.9-1-0.8-2.5 0.2-3.3l11.3-9.9c1-0.8 2.5-0.7 3.3 0.2z" fill="#FFFFFF" p-id="2915"></path><path d="M530.1 826.1l9.9 11.3c0.9 1 0.8 2.5-0.2 3.3-1 0.9-2.5 0.8-3.3-0.2l-9.9-11.3c-0.9-1-0.8-2.5 0.2-3.3 0.9-0.9 2.4-0.8 3.3 0.2zM555.3 854.8l9.9 11.3c0.9 1 0.8 2.5-0.2 3.3-1 0.9-2.5 0.8-3.3-0.2l-9.9-11.3c-0.9-1-0.8-2.5 0.2-3.3 0.9-0.9 2.4-0.8 3.3 0.2z" fill="#FFFFFF" p-id="2916"></path></svg>